<?xml version="1.0" encoding="utf-8"?>
<!DOCTYPE svg
  PUBLIC '-//W3C//DTD SVG 1.0//EN'
  'http://www.w3.org/TR/2001/REC-SVG-20010904/DTD/svg10.dtd'>
<svg width="503.27559055118115" height="158" preserveAspectRatio="xMinYMin meet" viewBox="0 0 503 158" xmlns="http://www.w3.org/2000/svg" version="1.0" fill-rule="evenodd" xmlns:xlink="http://www.w3.org/1999/xlink">
	<title>...</title>
	<desc>...</desc>
	<clipPath id="clip">
		<rect x="0" y="0" width="503.27559055118115" height="158"/>
	</clipPath>
	<g id="group" transform="scale(1,-1) translate(0,-158)" style="clip-path: url(#clip)">
		<g transform="">
			<text x="4" y="119" style="font-family: Helvetica; font-size: 8.5px;fill: rgb(9%,20%,25%); stroke:none;" transform="translate(0,238) scale(1,-1)">Arm trajectories</text>
			<rect x="134" y="113" width="131.54166666666663" height="21" style="stroke: none; stroke-linecap: butt; stroke-width: 1; fill: rgb(13%,48%,39%); fill-rule: evenodd;"/>
			<text x="192.2648333333333" y="120" style="font-family: Helvetica; font-size: 9px;fill: rgb(100%,100%,100%); stroke:none;" transform="translate(0,240) scale(1,-1)">220</text>
			<rect x="265.54166666666663" y="113" width="155.45833333333337" height="21" style="stroke: none; stroke-linecap: butt; stroke-width: 1; fill: rgb(71%,32%,28%); fill-rule: evenodd;"/>
			<text x="335.76483333333334" y="120" style="font-family: Helvetica; font-size: 9px;fill: rgb(100%,100%,100%); stroke:none;" transform="translate(0,240) scale(1,-1)">260</text>
			<text x="453.364" y="119" style="font-family: Helvetica; font-size: 9px;fill: rgb(9%,20%,25%); stroke:none;" transform="translate(0,238) scale(1,-1)">n=480</text>
			<text x="4" y="84" style="font-family: Helvetica; font-size: 8.5px;fill: rgb(9%,20%,25%); stroke:none;" transform="translate(0,168) scale(1,-1)">Service candidates</text>
			<rect x="134" y="78" width="119.58333333333334" height="21" style="stroke: none; stroke-linecap: butt; stroke-width: 1; fill: rgb(13%,48%,39%); fill-rule: evenodd;"/>
			<text x="188.7876666666667" y="85" style="font-family: Helvetica; font-size: 9px;fill: rgb(100%,100%,100%); stroke:none;" transform="translate(0,170) scale(1,-1)">10</text>
			<rect x="253.58333333333334" y="78" width="167.41666666666666" height="21" style="stroke: none; stroke-linecap: butt; stroke-width: 1; fill: rgb(71%,32%,28%); fill-rule: evenodd;"/>
			<text x="332.28766666666667" y="85" style="font-family: Helvetica; font-size: 9px;fill: rgb(100%,100%,100%); stroke:none;" transform="translate(0,170) scale(1,-1)">14</text>
			<text x="455.866" y="84" style="font-family: Helvetica; font-size: 9px;fill: rgb(9%,20%,25%); stroke:none;" transform="translate(0,168) scale(1,-1)">n=24</text>
			<text x="4" y="49" style="font-family: Helvetica; font-size: 8.5px;fill: rgb(9%,20%,25%); stroke:none;" transform="translate(0,98) scale(1,-1)">Teacher episodes</text>
			<rect x="134" y="43" width="165.02499999999998" height="21" style="stroke: none; stroke-linecap: butt; stroke-width: 1; fill: rgb(13%,48%,39%); fill-rule: evenodd;"/>
			<text x="211.5085" y="50" style="font-family: Helvetica; font-size: 9px;fill: rgb(100%,100%,100%); stroke:none;" transform="translate(0,100) scale(1,-1)">46</text>
			<rect x="299.025" y="43" width="121.97500000000002" height="21" style="stroke: none; stroke-linecap: butt; stroke-width: 1; fill: rgb(71%,32%,28%); fill-rule: evenodd;"/>
			<text x="355.00849999999997" y="50" style="font-family: Helvetica; font-size: 9px;fill: rgb(100%,100%,100%); stroke:none;" transform="translate(0,100) scale(1,-1)">34</text>
			<text x="455.866" y="49" style="font-family: Helvetica; font-size: 9px;fill: rgb(9%,20%,25%); stroke:none;" transform="translate(0,98) scale(1,-1)">n=80</text>
			<text x="5" y="145" style="font-family: Helvetica; font-size: 8px;fill: rgb(9%,20%,25%); stroke:none;" transform="translate(0,290) scale(1,-1)">Green: successful/accepted; red: rejected; denominators are separate</text>
			<text x="5" y="16" style="font-family: Helvetica; font-size: 8px;fill: rgb(59%,44%,17%); stroke:none;" transform="translate(0,32) scale(1,-1)">Plus 12 unevaluated service events, outside the candidate bar.</text>
		</g>
	</g>
</svg>
